# xmcd
#
# Track frame offsets:
#	150
#	14466
#	28163
#	43799
#	56281
#	80471
#	96496
#	113478
#	127590
#	138728
#	152206
#	164102
#	177731
#	187475
#	199081
#	218182
#	229533
#	241279
#	258878
#
# Disc length: 3595 seconds
#
# Revision: 1
# Processed by: cddbd v1.5.2PL0 Copyright (c) Steve Scherf et al.
# Submitted via: audiograbber 1.83.01
#
DISCID=120e0913
DTITLE=Gerhard Schöne - Ein Tag im Leben eines Kindes
DYEAR=2016
DGENRE=Deutsch
TTITLE0=Einmal Globus und zurück
TTITLE1=Regenzeit
TTITLE2=Hazel unterm Regenbogen
TTITLE3=Lara und die Eselsbibliotthek
TTITLE4=Das Kind mit dem Merkheft
TTITLE5=Wind in den Haaren
TTITLE6=Das fremde Kind
TTITLE7=Mein liebes Apfelbäumchen
TTITLE8=Ego-Shooter
TTITLE9=Geiglein, Geiglein, Violinchen
TTITLE10=Stella saß neben mir
TTITLE11=Der Junge des Soldaten
TTITLE12=Mians kleines Geheimnis
TTITLE13=Schönheitskönigin
TTITLE14=Nacht in Gulu
TTITLE15=Mette macht Mathe
TTITLE16=Jan beim Krippenspiel
TTITLE17=Wenn ich bei Opa früher war
TTITLE18=Die einen und die anderen
EXTD=
EXTT0=
EXTT1=
EXTT2=
EXTT3=
EXTT4=
EXTT5=
EXTT6=
EXTT7=
EXTT8=
EXTT9=
EXTT10=
EXTT11=
EXTT12=
EXTT13=
EXTT14=
EXTT15=
EXTT16=
EXTT17=
EXTT18=
PLAYORDER=
